<?xml version="1.0" encoding="UTF-8"?>
<svg version="1.1" xmlns="http://www.w3.org/2000/svg" width="1024" height="1024">
<path d="M0 0 C337.92 0 675.84 0 1024 0 C1024 337.92 1024 675.84 1024 1024 C686.08 1024 348.16 1024 0 1024 C0 686.08 0 348.16 0 0 Z " fill="#233C78" transform="translate(0,0)"/>
<path d="M0 0 C1.15997448 -0.01393734 2.31994897 -0.02787468 3.51507419 -0.04223436 C4.77480629 -0.02184447 6.03453839 -0.00145458 7.33244419 0.01955318 C8.69555486 0.01649833 10.05866151 0.01036497 11.42174631 0.00142902 C15.15757847 -0.01419262 18.89200069 0.01372973 22.62765324 0.04887545 C26.65960473 0.07914235 30.69147854 0.06887247 34.7235117 0.06355953 C41.70590544 0.05989138 48.68784083 0.08182873 55.67011929 0.1212244 C65.76520395 0.17814615 75.86006728 0.19634777 85.95529503 0.20514034 C102.33451938 0.22045573 118.71349952 0.26702657 135.09259129 0.33325863 C151.00208408 0.39752482 166.9115105 0.44706738 182.82110691 0.47681332 C183.80198939 0.47865238 184.78287187 0.48049145 185.79347806 0.48238624 C190.71434265 0.49152159 195.6352077 0.50036752 200.55607307 0.50906956 C241.37106868 0.581621 282.18579549 0.70489936 323.00055027 0.8613348 C323.00055027 1.5213348 323.00055027 2.1813348 323.00055027 2.8613348 C323.74305027 2.9025848 324.48555027 2.9438348 325.25055027 2.9863348 C328.33938368 3.96914543 329.4751863 5.09594177 331.17620182 7.82175732 C332.97021838 12.26045771 332.51470469 17.12080433 332.45465183 21.83350277 C332.45523594 23.03406811 332.45582005 24.23463345 332.45642185 25.47157955 C332.45411853 28.75032088 332.43410885 32.02837243 332.40612602 35.3069768 C332.38105939 38.73824291 332.37876625 42.16952372 332.37402439 45.60086727 C332.36160997 52.09254412 332.32880946 58.58395036 332.28862643 65.07550824 C332.24386069 72.46845511 332.22190966 79.86141516 332.20184469 87.25446391 C332.16007521 102.45690478 332.08975335 117.65909268 332.00055027 132.8613348 C335.74688698 132.36584547 335.74688698 132.36584547 338.62555027 130.1191473 C339.30617527 129.06340511 339.30617527 129.06340511 340.00055027 127.9863348 C342.36866701 124.57648896 344.31317395 122.84684513 348.00055027 120.8613348 C348.68117527 120.0982098 349.36180027 119.3350848 350.06305027 118.5488348 C361.17777125 108.38004752 376.28501063 106.21669865 390.77789402 106.63867855 C400.47557501 107.07897938 409.42203313 108.12347488 418.00055027 112.8613348 C418.77527683 113.25965511 419.5500034 113.65797543 420.34820652 114.06836605 C425.62360933 116.96941958 430.10746054 120.47490772 434.56305027 124.4863348 C435.08810154 124.95370052 435.61315281 125.42106625 436.15411472 125.90259457 C438.80047701 128.36502964 440.64503452 130.16743948 441.00055027 133.8613348 C441.66055027 133.8613348 442.32055027 133.8613348 443.00055027 133.8613348 C448.97141087 141.72106637 452.06992398 149.20820334 454.00055027 158.8613348 C454.33055027 159.5213348 454.66055027 160.1813348 455.00055027 160.8613348 C455.08397186 162.30982062 455.10787888 163.76204349 455.09820652 165.2128973 C455.09498386 166.06367855 455.09176121 166.9144598 455.0884409 167.7910223 C455.08006199 168.68047543 455.07168308 169.56992855 455.06305027 170.4863348 C455.05853855 171.3835223 455.05402683 172.2807098 455.0493784 173.2050848 C455.03757618 175.42390128 455.02111182 177.64258499 455.00055027 179.8613348 C454.34055027 179.8613348 453.68055027 179.8613348 453.00055027 179.8613348 C452.9515659 180.65797543 452.90258152 181.45461605 452.85211277 182.2753973 C452.10951336 192.79982338 452.10951336 192.79982338 450.00055027 197.8613348 C449.34055027 197.8613348 448.68055027 197.8613348 448.00055027 197.8613348 C447.34055027 200.8313348 446.68055027 203.8013348 446.00055027 206.8613348 C445.01055027 206.8613348 444.02055027 206.8613348 443.00055027 206.8613348 C442.73242527 207.43367855 442.46430027 208.0060223 442.18805027 208.5957098 C435.34703496 221.64764691 423.5048508 229.13936996 410.00055027 233.8613348 C409.27295506 234.12116146 408.54535984 234.38098812 407.79571629 234.64868832 C401.34229729 236.78465554 395.46390339 237.37033279 388.68805027 237.2988348 C387.17247532 237.28747494 387.17247532 237.28747494 385.62628269 237.27588558 C377.74574959 237.10246449 371.26902984 236.06066556 364.00055027 232.8613348 C362.99121433 232.4488348 361.9818784 232.0363348 360.94195652 231.6113348 C352.99747798 228.0489699 347.12960707 222.97023023 341.00055027 216.8613348 C340.23742527 216.14203793 339.47430027 215.42274105 338.68805027 214.6816473 C337.00055027 212.8613348 337.00055027 212.8613348 337.00055027 210.8613348 C335.68055027 210.8613348 334.36055027 210.8613348 333.00055027 210.8613348 C332.67055027 247.8213348 332.34055027 284.7813348 332.00055027 322.8613348 C340.46066746 322.83813168 348.92078465 322.81492855 357.63726902 322.7910223 C363.67294071 322.77950598 369.70860416 322.76925309 375.74427986 322.76082706 C383.56564922 322.7497396 391.38697596 322.7356581 399.20831394 322.71045589 C406.061776 322.68838296 412.91519189 322.67677073 419.76868725 322.67158031 C422.38539258 322.66788065 425.00209535 322.66065629 427.61878109 322.64987469 C431.27954055 322.63538899 434.94010863 322.63335566 438.60089207 322.63428402 C439.68630283 322.62709347 440.7717136 322.61990292 441.8900156 322.61249447 C442.8897591 322.6152438 443.8895026 322.61799313 444.91954136 322.62082577 C445.78510497 322.61898218 446.65066858 322.6171386 447.5424614 322.61523914 C450.31696158 322.89301285 452.46934198 323.71896061 455.00055027 324.8613348 C455.00055027 325.5213348 455.00055027 326.1813348 455.00055027 326.8613348 C456.08336277 327.2016473 456.08336277 327.2016473 457.18805027 327.5488348 C462.44924313 330.00405814 465.82979456 334.17083989 468.28180027 339.34180355 C470.09587922 345.70093899 469.9308034 353.52131638 468.00055027 359.8613348 C467.34055027 359.8613348 466.68055027 359.8613348 466.00055027 359.8613348 C465.94383152 360.56387386 465.88711277 361.26641293 465.82867527 361.99024105 C464.73025944 365.79842801 462.45774163 368.03863055 459.75055027 370.7988348 C451.79291735 378.80394915 451.79291735 378.80394915 446.68805027 388.7363348 C446.36191746 389.70313168 446.03578465 390.66992855 445.69976902 391.6660223 C445.46902683 392.39047543 445.23828465 393.11492855 445.00055027 393.8613348 C444.34055027 393.8613348 443.68055027 393.8613348 443.00055027 393.8613348 C442.82205559 410.63024994 442.82205559 410.63024994 449.00055027 425.8613348 C449.5187534 426.66699886 450.03695652 427.47266293 450.57086277 428.30274105 C456.04447791 436.02944893 462.72312858 440.80384209 472.00055027 442.8613348 C475.50535489 443.15635322 478.98483287 443.18626662 482.50055027 443.1738348 C483.41191746 443.18994808 484.32328465 443.20606136 485.26226902 443.22266293 C490.99062161 443.22679594 494.90775486 442.49283063 500.00055027 439.8613348 C501.03180027 439.3869598 502.06305027 438.9125848 503.12555027 438.4238348 C507.34440472 436.13097912 510.32968011 433.86764004 513.00055027 429.8613348 C513.66055027 429.8613348 514.32055027 429.8613348 515.00055027 429.8613348 C515.66055027 427.8813348 516.32055027 425.9013348 517.00055027 423.8613348 C517.66055027 423.8613348 518.32055027 423.8613348 519.00055027 423.8613348 C519.66055027 420.5613348 520.32055027 417.2613348 521.00055027 413.8613348 C521.66055027 413.8613348 522.32055027 413.8613348 523.00055027 413.8613348 C522.67055027 405.6113348 522.34055027 397.3613348 522.00055027 388.8613348 C521.34055027 388.8613348 520.68055027 388.8613348 520.00055027 388.8613348 C519.67055027 387.2113348 519.34055027 385.5613348 519.00055027 383.8613348 C518.34055027 383.8613348 517.68055027 383.8613348 517.00055027 383.8613348 C515.60754845 381.90242599 514.27809581 379.897423 513.00055027 377.8613348 C510.91068492 374.72653678 510.18349103 374.4166354 507.00055027 372.8613348 C501.47183219 367.74727057 497.39098001 361.86214295 496.65289402 354.2988348 C496.36915238 341.86354907 498.39482805 336.12473094 506.64898777 326.9628973 C510.68618462 323.35490411 514.37527842 322.61144077 519.70002842 322.60736752 C520.8370319 322.60172787 521.97403538 322.59608822 523.14549351 322.59027767 C525.00262722 322.59635036 525.00262722 322.59635036 526.89727879 322.60254574 C528.86383427 322.59728878 528.86383427 322.59728878 530.87011814 322.59192562 C534.4588569 322.58282119 538.04748044 322.58633758 541.63622117 322.59268379 C545.39397409 322.59775281 549.15171725 322.59304993 552.90947056 322.58991146 C559.21841291 322.5862749 565.5273084 322.59106326 571.83624363 322.60059261 C579.12933655 322.6114813 586.42231768 322.60794736 593.71540791 322.5969398 C599.97964801 322.58786373 606.24385447 322.58658307 612.50809902 322.59181714 C616.24842025 322.59493448 619.98868892 322.59535258 623.72900677 322.58874416 C627.89714398 322.58189394 632.06508841 322.59138867 636.23321629 322.60254574 C637.47332966 322.59849728 638.71344303 322.59444881 639.9911356 322.59027767 C641.12531925 322.59591732 642.25950291 322.60155697 643.42805576 322.60736752 C644.9060885 322.60849859 644.9060885 322.60849859 646.41398048 322.60965252 C650.48421989 323.00570104 652.28882265 324.10414355 655.08777285 327.08188468 C657.28728455 330.27798737 657.50214324 331.79654486 657.50670815 335.62916374 C657.51775583 336.78842273 657.52880352 337.94768171 657.54018599 339.14206976 C657.53194522 340.41131672 657.52370445 341.68056368 657.51521397 342.98827267 C657.52053947 344.35362835 657.52760519 345.71897816 657.53626102 347.08431679 C657.55491519 350.83548311 657.54857404 354.58625537 657.53810799 358.33743823 C657.53112376 362.3832095 657.547108 366.42889919 657.56010532 370.47464657 C657.58176379 378.40024953 657.5816137 386.32570902 657.57347978 394.25133186 C657.56718353 400.69234673 657.56831336 407.13331972 657.57475185 413.57433414 C657.57565351 414.49056893 657.57655516 415.40680371 657.57748414 416.35080319 C657.57933532 418.21204814 657.58119788 420.07329308 657.5830717 421.93453801 C657.59965667 439.39430022 657.59092512 456.85398165 657.57408612 474.31373901 C657.5593892 490.29145863 657.57401621 506.26899021 657.60285629 522.24668562 C657.63224062 538.64789341 657.64322534 555.04901438 657.63367409 571.45024735 C657.63265152 573.30500478 657.63165691 575.15976223 657.63069057 577.01451969 C657.63021418 577.92712098 657.62973779 578.83972227 657.62924697 579.77997814 C657.62708153 586.21332896 657.63689385 592.6465977 657.6514616 599.07993031 C657.66896706 606.92006777 657.66889339 614.75996546 657.64610995 622.60009342 C657.63495125 626.60091981 657.63184161 630.60132349 657.65041065 634.60213184 C657.66719033 638.26451448 657.66089969 641.92610494 657.63619386 645.58843601 C657.62898364 647.54125248 657.6463638 649.49411187 657.6646052 651.44685644 C657.56325177 660.92671675 657.56325177 660.92671675 654.71128845 664.6272049 C650.94567112 667.73074265 648.09110069 667.98628669 643.31259048 667.98668396 C642.36665891 667.98918748 641.42072734 667.991691 640.44613117 667.99427038 C638.88888792 667.99075864 638.88888792 667.99075864 637.3001852 667.98717594 C636.19197263 667.98862938 635.08376006 667.99008282 633.94196528 667.99158031 C630.19617044 667.99525495 626.45041592 667.9917471 622.70462132 667.98831844 C620.00497383 667.98946968 617.30532919 667.99101602 614.60568249 667.99304569 C608.71949389 667.99666418 602.83331446 667.99654364 596.94712543 667.99399853 C588.19442361 667.99022421 579.44172955 667.99214552 570.68902778 667.99520683 C555.059489 668.00047966 539.4299543 668.0000134 523.80041513 667.99712792 C510.12423827 667.99461536 496.44806291 667.99395427 482.77188587 667.99515057 C481.41272749 667.99526514 481.41272749 667.99526514 480.02611137 667.99538204 C476.34823557 667.99569336 472.67035978 667.99601176 468.99248398 667.9963418 C434.47213012 667.9994027 399.95177886 667.99662423 365.4314254 667.9912449 C334.73783152 667.98649829 304.04424178 667.98692438 273.35064793 667.99170589 C238.89163084 667.99705601 204.43261605 667.99918645 169.9735986 667.99609363 C166.30292678 667.9957729 162.63225496 667.99546006 158.96158314 667.99515057 C158.05772357 667.99507149 157.153864 667.99499241 156.22261475 667.99491094 C142.55103683 667.99377168 128.87946057 667.99510705 115.20788288 667.99763012 C99.67007241 668.00048325 84.13226666 667.99978764 68.59445678 667.99434938 C59.88989983 667.99140358 51.18535312 667.99123507 42.48079643 667.99499555 C36.67617154 667.99722749 30.87155492 667.99586142 25.06693126 667.99149078 C21.75329832 667.98909793 18.43969006 667.98886922 15.12605701 667.99189676 C11.56709557 667.99490109 8.00819142 667.99185586 4.44923306 667.98717594 C2.8849663 667.99068769 2.8849663 667.99068769 1.2890982 667.99427038 C0.34817367 667.99176687 -0.59275087 667.98926335 -1.56218827 667.98668396 C-2.37707197 667.98661621 -3.19195568 667.98654845 -4.03153283 667.98647863 C-5.99944973 667.8613348 -5.99944973 667.8613348 -7.99944973 666.8613348 C-7.99944973 666.2013348 -7.99944973 665.5413348 -7.99944973 664.8613348 C-8.63882473 664.7375848 -9.27819973 664.6138348 -9.93694973 664.4863348 C-10.61757473 664.2800848 -11.29819973 664.0738348 -11.99944973 663.8613348 C-13.18381183 661.4926106 -13.12712571 660.07027834 -13.1317029 657.42752534 C-13.13574377 656.48736948 -13.13978464 655.54721362 -13.14394796 654.57856819 C-13.14332188 653.53658123 -13.1426958 652.49459427 -13.14205074 651.42103195 C-13.14692727 649.7644216 -13.14692727 649.7644216 -13.15190232 648.07434437 C-13.16165856 644.32941059 -13.16420156 640.58450562 -13.16680813 636.83956051 C-13.17225075 634.14520202 -13.17807904 631.45084681 -13.18436384 628.75649041 C-13.19895121 622.09967229 -13.20804644 615.44285667 -13.21545254 608.78602712 C-13.22176995 603.24955659 -13.23042727 597.71309379 -13.24061108 592.17662907 C-13.24207808 591.37880898 -13.24354507 590.58098889 -13.24505653 589.75899244 C-13.24805706 588.13197165 -13.25106131 586.50495087 -13.25406919 584.87793009 C-13.29263599 563.78244308 -13.31760676 542.68694377 -13.34024629 521.59143454 C-13.34318941 518.85919348 -13.34617954 516.12695246 -13.34918427 513.39471146 C-13.38732615 478.65567254 -13.42085176 443.91662921 -13.44244343 409.17757577 C-13.44793779 400.34372777 -13.45363731 391.50987989 -13.45941067 382.67603207 C-13.46004309 381.69988603 -13.46067552 380.72374 -13.46132711 379.71801378 C-13.4820136 348.06007345 -13.5279891 316.40223559 -13.58806335 284.74434733 C-13.64968231 252.2132817 -13.68864863 219.68227095 -13.69794667 187.15114606 C-13.69926348 182.55897427 -13.70082544 177.96680259 -13.70252895 173.37463093 C-13.70285441 172.47081548 -13.70317987 171.56700002 -13.7035152 170.63579622 C-13.70939797 156.0741778 -13.73899448 141.51269919 -13.77723517 126.95113385 C-13.81510889 112.32131042 -13.8273964 97.69164199 -13.81347257 83.06177459 C-13.80596056 74.3647409 -13.8180241 65.66824337 -13.85789574 56.97129508 C-13.88259497 51.16525437 -13.88197427 45.35957625 -13.86059659 39.55352319 C-13.84913333 36.24279085 -13.85266644 32.93329009 -13.87931079 29.62261502 C-13.90628151 26.05777214 -13.89043862 22.49562707 -13.86357784 18.93084335 C-13.88168109 17.90056223 -13.89978434 16.8702811 -13.91843617 15.80877933 C-13.83255865 10.69138343 -13.3518593 7.56866438 -9.82040733 3.72332394 C-6.60652655 0.99027788 -4.29860537 -0.01146295 0 0 Z " fill="#FDFDFD" transform="translate(114.99944972991943,252.13866519927979)"/>
<path d="M0 0 C4.8758746 3.60390731 7.32519297 8.265631 8.40234375 14.2265625 C8.6498304 16.14543158 8.83093315 18.07263792 9 20 C9.66 20 10.32 20 11 20 C14.17300542 28.29583478 16.79121509 36.15963272 18 45 C18.66 45 19.32 45 20 45 C20.66 48.63 21.32 52.26 22 56 C22.66 56 23.32 56 24 56 C24.67321284 58.24805002 25.33834123 60.49852224 26 62.75 C26.37125 64.00296875 26.7425 65.2559375 27.125 66.546875 C28 70 28 70 28 74 C28.66 74 29.32 74 30 74 C30.82101314 76.1843191 31.63142482 78.37262436 32.4375 80.5625 C32.88996094 81.78066406 33.34242188 82.99882812 33.80859375 84.25390625 C34.97885142 87.93350333 35.57261353 91.18299666 36 95 C36.66 95 37.32 95 38 95 C38.96023825 97.85353821 39.91824013 100.70779555 40.875 103.5625 C41.14441406 104.36236328 41.41382813 105.16222656 41.69140625 105.98632812 C46 118.85956555 46 118.85956555 46 124 C46.66 124 47.32 124 48 124 C48.18175781 124.71285156 48.36351562 125.42570312 48.55078125 126.16015625 C50.21242248 132.58472816 50.21242248 132.58472816 52.625 138.75 C54.08665995 142.2048326 54.6206166 145.28204273 55 149 C55.66 149 56.32 149 57 149 C60.17300542 157.29583478 62.79121509 165.15963272 64 174 C64.66 174 65.32 174 66 174 C66.66 177.63 67.32 181.26 68 185 C68.66 185 69.32 185 70 185 C70.98678898 187.85172962 71.96456818 190.70604342 72.9375 193.5625 C73.21529297 194.36236328 73.49308594 195.16222656 73.77929688 195.98632812 C75.3684451 200.67718736 76.47747981 205.07243618 77 210 C77.66 210 78.32 210 79 210 C79.27263672 210.94359375 79.27263672 210.94359375 79.55078125 211.90625 C81.40107498 218.20673738 83.5619238 224.29695378 85.9375 230.4140625 C87.9492504 235.7420577 89.55557956 241.03481823 90.9375 246.5625 C92.26636378 251.8256634 94.0486966 256.36584094 96.6328125 261.1328125 C98.49967409 265.04788795 99.87499389 269.07781476 101.25 273.1875 C101.5082959 273.94844971 101.7665918 274.70939941 102.03271484 275.4934082 C103.50949704 280.00098824 104.47538691 284.28472759 105 289 C105.66 289 106.32 289 107 289 C107.66 292.63 108.32 296.26 109 300 C109.66 300 110.32 300 111 300 C115.56821611 314.54759298 115.56821611 314.54759298 113.41015625 322.05078125 C111.29450852 324.97518075 108.37455625 325.9528248 105.125 327.25 C104.18720703 327.6521875 104.18720703 327.6521875 103.23046875 328.0625 C99.87878572 329.45135808 97.68828398 330 94 330 C94 330.66 94 331.32 94 332 C92.74703125 332.33773438 91.4940625 332.67546875 90.203125 333.0234375 C88.55202322 333.47373798 86.90098485 333.92427101 85.25 334.375 C84.425 334.59671875 83.6 334.8184375 82.75 335.046875 C81.95078125 335.26601563 81.1515625 335.48515625 80.328125 335.7109375 C79.5949707 335.90993652 78.86181641 336.10893555 78.10644531 336.31396484 C75.96247601 336.94413549 75.96247601 336.94413549 73.97949219 338.08056641 C72 339 72 339 68 339 C68 339.66 68 340.32 68 341 C66.4188708 341.50692692 64.83498617 342.00526443 63.25 342.5 C61.92742187 342.91765625 61.92742187 342.91765625 60.578125 343.34375 C58 344 58 344 54 344 C54 344.66 54 345.32 54 346 C53.31292969 346.19335938 52.62585938 346.38671875 51.91796875 346.5859375 C51.01691406 346.84632813 50.11585938 347.10671875 49.1875 347.375 C47.84751953 347.75785156 47.84751953 347.75785156 46.48046875 348.1484375 C43.79532104 348.95266661 43.79532104 348.95266661 41 351 C39.11534307 351.47116423 37.22956427 351.94177821 35.328125 352.33984375 C32.79402061 352.99828347 32.79402061 352.99828347 29.73046875 354.4609375 C25.92469449 356.13533537 22.14046074 356.95514787 18.0625 357.6875 C17.37865234 357.81705078 16.69480469 357.94660156 15.99023438 358.08007812 C14.32816202 358.39389598 12.66425873 358.69799166 11 359 C11 359.66 11 360.32 11 361 C10.29875 361.18175781 9.5975 361.36351562 8.875 361.55078125 C3.10321471 363.07999067 -2.44899107 364.80054363 -8 367 C-7.89671437 369.43910662 -7.89671437 369.43910662 -7 372 C-4.71439733 373.47047903 -4.71439733 373.47047903 -1.9375 374.3125 C-1.01839844 374.63863281 -0.09929687 374.96476562 0.84765625 375.30078125 C1.55792969 375.53152344 2.26820313 375.76226562 3 376 C3 376.66 3 377.32 3 378 C3.928125 378.268125 4.85625 378.53625 5.8125 378.8125 C8.88553313 379.95735548 9.87642013 380.68336741 12 383 C12.61875 383.28875 13.2375 383.5775 13.875 383.875 C23.58148386 389.01372675 31.61488993 403.53356848 34.8984375 413.8125 C39.30874559 430.32080919 38.33849726 449.14256251 30 464.25 C22.20592553 477.57472639 10.73473299 489.56761883 -4 495 C-6.80078125 495.1328125 -6.80078125 495.1328125 -9 495 C-9 495.66 -9 496.32 -9 497 C-29.94224352 501.78679852 -47.31114218 497.70383002 -66 488 C-66 487.34 -66 486.68 -66 486 C-66.66 486 -67.32 486 -68 486 C-68 485.34 -68 484.68 -68 484 C-68.8353125 483.938125 -68.8353125 483.938125 -69.6875 483.875 C-73.19328368 482.54848726 -74.73119016 479.90873056 -77 477 C-77.47953125 476.54367187 -77.9590625 476.08734375 -78.453125 475.6171875 C-80.39551275 473.5865094 -81.73789401 471.40527217 -83.1875 469 C-83.71730469 468.13375 -84.24710938 467.2675 -84.79296875 466.375 C-86 464 -86 464 -86 461 C-86.66 461 -87.32 461 -88 461 C-88.65601744 459.48353179 -89.2992664 457.96153825 -89.9375 456.4375 C-90.29714844 455.59058594 -90.65679688 454.74367188 -91.02734375 453.87109375 C-96.33196705 438.21286833 -93.80659299 419.72400554 -87 405 C-86.00305604 403.33150351 -85.00395183 401.66428919 -84 400 C-83.74803871 397.29046449 -83.74803871 397.29046449 -84 395 C-89.2017705 395.5489642 -93.61438365 396.82436797 -98.4375 398.875 C-99.76415731 399.42097549 -101.09097851 399.96655293 -102.41796875 400.51171875 C-103.60003906 401.00285156 -104.78210938 401.49398438 -106 402 C-113.31340885 404.96162838 -121.04816436 408 -129 408 C-129 408.66 -129 409.32 -129 410 C-130.16917969 410.33773438 -131.33835937 410.67546875 -132.54296875 411.0234375 C-134.09118394 411.47382737 -135.63935891 411.9243555 -137.1875 412.375 C-137.95642578 412.59671875 -138.72535156 412.8184375 -139.51757812 413.046875 C-142.68583403 413.97151621 -145.74995989 414.89607817 -148.80078125 416.1640625 C-151 417 -151 417 -155 417 C-155 417.66 -155 418.32 -155 419 C-160.61 420.32 -166.22 421.64 -172 423 C-172 423.66 -172 424.32 -172 425 C-173.08539062 425.25394531 -174.17078125 425.50789063 -175.2890625 425.76953125 C-176.73446724 426.11680382 -178.17977465 426.46448164 -179.625 426.8125 C-180.69427734 427.0609668 -180.69427734 427.0609668 -181.78515625 427.31445312 C-185.22445617 428.1506132 -188.08279828 429.04139914 -191.2734375 430.63671875 C-194 432 -194 432 -198 432 C-198 432.66 -198 433.32 -198 434 C-199.70604587 434.1366051 -201.4153544 434.23271654 -203.125 434.3125 C-204.07632813 434.37050781 -205.02765625 434.42851562 -206.0078125 434.48828125 C-210.03957593 433.83035641 -212.51860777 432.15537941 -215 429 C-216.29487624 426.14213447 -217.00385515 423.24245907 -217.6875 420.1875 C-218.06275571 418.63843403 -218.44164369 417.09024331 -218.82421875 415.54296875 C-219.01056885 414.78443604 -219.19691895 414.02590332 -219.38891602 413.24438477 C-220.34544869 409.73123861 -221.65671454 406.38015686 -223 403 C-223.73360166 401.06417488 -224.46335316 399.12688177 -225.1875 397.1875 C-225.53167969 396.27355469 -225.87585938 395.35960937 -226.23046875 394.41796875 C-227 392 -227 392 -227 389 C-227.66 389 -228.32 389 -229 389 C-229.32613281 387.87722656 -229.65226563 386.75445312 -229.98828125 385.59765625 C-230.4292764 384.08581752 -230.87071095 382.57410692 -231.3125 381.0625 C-231.5396167 380.28503418 -231.7667334 379.50756836 -232.00073242 378.70654297 C-233.19377389 374.64943857 -234.42908927 370.6222589 -235.8125 366.625 C-237 363 -237 363 -237 360 C-237.66 360 -238.32 360 -239 360 C-239.33 357.36 -239.66 354.72 -240 352 C-240.66 352 -241.32 352 -242 352 C-242.50471197 350.23050388 -243.00360685 348.45934777 -243.5 346.6875 C-243.7784375 345.70136719 -244.056875 344.71523438 -244.34375 343.69921875 C-245 341 -245 341 -245 338 C-245.66 338 -246.32 338 -247 338 C-247.29132813 336.97003906 -247.58265625 335.94007813 -247.8828125 334.87890625 C-248.29563286 333.43974728 -248.70980372 332.00097532 -249.125 330.5625 C-249.45407349 329.42071289 -249.45407349 329.42071289 -249.78979492 328.25585938 C-250.96539862 324.255273 -252.2166505 320.31206892 -253.66796875 316.40234375 C-253.9417334 315.66363037 -254.21549805 314.92491699 -254.49755859 314.16381836 C-255.02530561 312.7625536 -255.56526183 311.36580175 -256.11962891 309.97485352 C-258.36798267 304.00409397 -259.04267204 298.12801612 -257 292 C-256.34 292 -255.68 292 -255 292 C-254.835 291.319375 -254.67 290.63875 -254.5 289.9375 C-251.45839593 283.98102537 -244.67342611 278.52929047 -238.29296875 276.44140625 C-235.19550486 275.84513126 -232.21546911 275.82932481 -229.0625 275.8125 C-227.85722656 275.79832031 -226.65195312 275.78414063 -225.41015625 275.76953125 C-220.13910519 276.12576494 -216.71201607 278.0264236 -212.4375 281 C-203.06565109 287.49694898 -193.18718988 287.53133385 -182 286 C-173.41367954 283.56298738 -166.01628372 278.37688782 -161 271 C-160.67 270.34 -160.34 269.68 -160 269 C-159.34 269 -158.68 269 -158 269 C-157.71125 267.906875 -157.4225 266.81375 -157.125 265.6875 C-156 262 -156 262 -154 259 C-151.99075682 249.55655703 -152.0062925 239.87311626 -156 231 C-156.3403125 230.23816406 -156.680625 229.47632813 -157.03125 228.69140625 C-161.44884017 219.84130162 -168.95276071 213.85195519 -178 210 C-180.36953108 209.44194221 -182.56465274 209.2029456 -185 209 C-185.33 208.67 -185.66 208.34 -186 208 C-188.40939516 207.87225155 -190.77749676 207.81478436 -193.1875 207.8125 C-194.50105469 207.79832031 -195.81460938 207.78414062 -197.16796875 207.76953125 C-200.86238439 207.99172342 -203.56511694 208.69240247 -207 210 C-208.258125 210.309375 -209.51625 210.61875 -210.8125 210.9375 C-211.864375 211.288125 -212.91625 211.63875 -214 212 C-214.33 212.99 -214.66 213.98 -215 215 C-215.969375 215.309375 -216.93875 215.61875 -217.9375 215.9375 C-221.07268991 216.64067991 -221.07268991 216.64067991 -222.0078125 218.84765625 C-222.33523438 219.55792969 -222.66265625 220.26820313 -223 221 C-223.96288628 222.18013918 -224.94314821 223.3462483 -225.9375 224.5 C-228.63068321 227.95528302 -229.55407723 230.77545885 -230.375 235.0625 C-231.76427072 241.5813857 -234.60434064 244.33463747 -240 248 C-240.56589844 248.42023438 -241.13179687 248.84046875 -241.71484375 249.2734375 C-247.10979696 253.1446253 -251.96245859 253.1819705 -258.4375 253.1875 C-259.18837891 253.19974609 -259.93925781 253.21199219 -260.71289062 253.22460938 C-264.93647648 253.2357534 -268.14303716 252.9399833 -272 251 C-272 250.34 -272 249.68 -272 249 C-272.598125 248.731875 -273.19625 248.46375 -273.8125 248.1875 C-278.28119944 245.76163459 -279.99065322 242.63023389 -282 238 C-282.47716998 236.05240924 -282.95391736 234.10471151 -283.42651367 232.15600586 C-284.34013209 228.72128288 -285.59592432 225.43760298 -286.875 222.125 C-287.14038574 221.4252002 -287.40577148 220.72540039 -287.67919922 220.00439453 C-289.1023186 216.26838252 -290.58554815 212.56479729 -292.125 208.875 C-294.20413193 203.77246371 -295.63055068 198.51205887 -297.0703125 193.19921875 C-297.92005766 190.04924847 -297.92005766 190.04924847 -299.1171875 187.33203125 C-300 185 -300 185 -300 181 C-300.66 181 -301.32 181 -302 181 C-302.25394531 180.16597656 -302.50789062 179.33195313 -302.76953125 178.47265625 C-303.11371094 177.34730469 -303.45789063 176.22195312 -303.8125 175.0625 C-304.31716797 173.40927734 -304.31716797 173.40927734 -304.83203125 171.72265625 C-307.25150185 164.01109946 -309.89170432 156.37756271 -312.5625 148.75 C-313.01786133 147.44289062 -313.01786133 147.44289062 -313.48242188 146.109375 C-315.24015144 141.08360262 -315.24015144 141.08360262 -317.21484375 136.140625 C-318 134 -318 134 -318 130 C-318.66 130 -319.32 130 -320 130 C-322.40458824 124.43938969 -322.79883081 118.9557275 -322 113 C-319.84361075 108.60735523 -318.43906237 107.58778604 -313.94921875 105.75390625 C-308.89949954 104.10116689 -304.34871218 102.74054754 -299 103 C-299 102.34 -299 101.68 -299 101 C-295.40304144 99.61193436 -291.80419273 98.22884878 -288.20458984 96.84765625 C-286.65746621 96.25279321 -285.1109702 95.65629648 -283.56494141 95.05859375 C-251.81679752 82.78529196 -251.81679752 82.78529196 -239 81 C-239 80.34 -239 79.68 -239 79 C-231.33299888 76.04444196 -224.27449001 73.42799086 -216 73 C-216 72.34 -216 71.68 -216 71 C-196.49025229 64.01318807 -196.49025229 64.01318807 -189.6875 62.3125 C-185.92658238 61.36206655 -183.12281926 60.02005782 -179.859375 57.96875 C-176.71368909 56.32982121 -173.31442698 55.6426489 -169.890625 54.77734375 C-164.20550173 53.24850655 -158.72910015 51.06605475 -153.25 48.92578125 C-146.89891728 46.49901811 -140.72622867 44.98876862 -134 44 C-134 43.34 -134 42.68 -134 42 C-133.28714844 41.81824219 -132.57429687 41.63648438 -131.83984375 41.44921875 C-125.41527184 39.78757752 -125.41527184 39.78757752 -119.25 37.375 C-115.7951674 35.91334005 -112.71795727 35.3793834 -109 35 C-109 34.34 -109 33.68 -109 33 C-104.545 32.505 -104.545 32.505 -100 32 C-100 31.34 -100 30.68 -100 30 C-98.85402344 29.67386719 -97.70804688 29.34773438 -96.52734375 29.01171875 C-94.99732777 28.5705485 -93.46738365 28.12912894 -91.9375 27.6875 C-90.80924805 27.36749023 -90.80924805 27.36749023 -89.65820312 27.04101562 C-86.06667679 25.99931751 -82.60859151 24.89229082 -79.1875 23.375 C-75.75759405 21.89543273 -72.70155266 21.37770946 -69 21 C-69 20.34 -69 19.68 -69 19 C-61.10959618 16.30597548 -53.24500881 13.6820326 -45.171875 11.578125 C-43.43009682 11.1144862 -41.70993478 10.56997826 -40 10 C-40 9.34 -40 8.68 -40 8 C-37.75194998 7.32678716 -35.50147776 6.66165877 -33.25 6 C-31.99703125 5.62875 -30.7440625 5.2575 -29.453125 4.875 C-26 4 -26 4 -22 4 C-22 3.34 -22 2.68 -22 2 C-6.5610812 -2.22363003 -6.5610812 -2.22363003 0 0 Z " fill="#FEFEFE" transform="translate(834,68)"/>
<path d="M0 0 C98.34 0 196.68 0 298 0 C298.33 37.62 298.66 75.24 299 114 C299.33 115.98 299.66 117.96 300 120 C300.66 120 301.32 120 302 120 C302.391875 120.928125 302.78375 121.85625 303.1875 122.8125 C305.14739849 126.25921804 306.59760503 127.16086758 310 129 C310 129.66 310 130.32 310 131 C315.0424307 133.04422866 319.23681628 134.18472984 324.6875 134.5625 C325.86699219 134.64628906 327.04648437 134.73007812 328.26171875 134.81640625 C329.16535156 134.87699219 330.06898438 134.93757812 331 135 C331 134.34 331 133.68 331 133 C331.60585938 132.81566406 332.21171875 132.63132812 332.8359375 132.44140625 C339.34642837 130.18777479 343.58120438 127.04414655 348.55078125 122.32421875 C359.2478076 112.17313314 359.2478076 112.17313314 366 112 C366 111.34 366 110.68 366 110 C368.79607623 109.20908743 371.28475241 108.87181392 374.1875 108.8671875 C374.96867187 108.86589844 375.74984375 108.86460937 376.5546875 108.86328125 C377.76511719 108.86908203 377.76511719 108.86908203 379 108.875 C379.80695313 108.87113281 380.61390625 108.86726563 381.4453125 108.86328125 C382.22648437 108.86457031 383.00765625 108.86585938 383.8125 108.8671875 C384.87404297 108.86887939 384.87404297 108.86887939 385.95703125 108.87060547 C388.07712733 109.00488498 389.95957563 109.42283502 392 110 C392 110.66 392 111.32 392 112 C392.94875 112.144375 393.8975 112.28875 394.875 112.4375 C398 113 398 113 400 114 C400 114.66 400 115.32 400 116 C400.680625 116.020625 401.36125 116.04125 402.0625 116.0625 C408.51160976 118.12072652 412.46922534 124.28914865 415.95703125 129.8125 C420.58896314 139.52741332 420.59134519 153.11790087 418 163.5 C414.84095517 172.00855942 408.87621073 179.52137037 401 184 C400.01 184 399.02 184 398 184 C398 184.66 398 185.32 398 186 C388.26516458 190.06071347 377.38049993 192.19200373 367 189 C367 188.34 367 187.68 367 187 C366.443125 186.93683594 365.88625 186.87367188 365.3125 186.80859375 C358.39445322 185.69843422 354.89002459 182.83538744 350 178 C344.29764308 172.49836605 339.7333133 168.14814258 332 166 C332 165.34 332 164.68 332 164 C321.08161492 164.15823746 313.47649571 165.11877556 305.125 172.5625 C300.5960578 177.75746311 298.89436953 180.94322201 298.84178162 187.88482666 C298.8319928 188.86636719 298.82220398 189.84790771 298.81211853 190.85919189 C298.80636307 191.92949646 298.8006076 192.99980103 298.79467773 194.10253906 C298.78477814 195.23453735 298.77487854 196.36653564 298.76467896 197.53283691 C298.73307403 201.27707828 298.70831037 205.02133234 298.68359375 208.765625 C298.66302337 211.36066011 298.64202687 213.95569187 298.62062073 216.55072021 C298.57105306 222.68461062 298.52578544 228.81851898 298.48259836 234.95245719 C298.42833641 242.62198528 298.36750228 250.29145943 298.30664062 257.9609375 C298.19811391 271.64058353 298.09952738 285.32027896 298 299 C261.7 299 225.4 299 188 299 C189.11793634 293.41031832 189.70248986 293.14451962 194 290 C194.66 289.01 195.32 288.02 196 287 C196.66 287 197.32 287 198 287 C198.66 285.35 199.32 283.7 200 282 C200.66 282 201.32 282 202 282 C202.28875 281.2575 202.5775 280.515 202.875 279.75 C203.82302644 277.43260203 204.84845911 275.22082885 206 273 C206.99 273 207.98 273 209 273 C213.61283421 253.56019869 217.02081001 229.94736687 206.875 211.5625 C201.06340126 202.64322531 193.68607428 193.84303714 184 189 C184 188.34 184 187.68 184 187 C181.69 186.34 179.38 185.68 177 185 C177 184.34 177 183.68 177 183 C176.3709375 182.87882813 175.741875 182.75765625 175.09375 182.6328125 C173.80984375 182.38144531 173.80984375 182.38144531 172.5 182.125 C171.6646875 181.96257812 170.829375 181.80015625 169.96875 181.6328125 C167.72455069 181.1544437 165.50121939 180.57674057 163.29296875 179.953125 C148.08064403 176.1258318 132.12490789 178.86765295 118.625 186.375 C113.99562853 189.21018385 110.04313976 192.39633195 106 196 C105.34 196 104.68 196 104 196 C103.731875 196.598125 103.46375 197.19625 103.1875 197.8125 C101.98449906 200.02855437 100.77259941 201.23162106 99 203 C93.11401836 210.07410322 90.2406124 217.1210515 88 226 C87.34 226 86.68 226 86 226 C85.92514144 230.25004671 85.87106833 234.49973134 85.83520508 238.75024414 C85.82023492 240.19236955 85.79985132 241.63445036 85.77368164 243.07641602 C85.57010692 254.59235834 86.94093226 263.08516187 93 273 C93.556875 274.093125 94.11375 275.18625 94.6875 276.3125 C98.32871989 282.68823286 103.76300056 288.41172727 109.5625 292.875 C110.366875 293.57625 111.17125 294.2775 112 295 C112 296.32 112 297.64 112 299 C75.04 299 38.08 299 0 299 C0 200.33 0 101.66 0 0 Z " fill="#243D79" transform="translate(126,276)"/>
<path d="M0 0 C35.97 0 71.94 0 109 0 C109 98.01 109 196.02 109 297 C10.66 297 -87.68 297 -189 297 C-189 261.03 -189 225.06 -189 188 C-187.35 187.67 -185.7 187.34 -184 187 C-181.8671875 188.80078125 -181.8671875 188.80078125 -179.875 191.3125 C-177.61682768 194.11105208 -176.01746321 195.98835786 -173 198 C-173 198.66 -173 199.32 -173 200 C-171.35 200.66 -169.7 201.32 -168 202 C-168 202.66 -168 203.32 -168 204 C-166.35 204.33 -164.7 204.66 -163 205 C-163 205.66 -163 206.32 -163 207 C-158.71 207.99 -154.42 208.98 -150 210 C-150 210.66 -150 211.32 -150 212 C-138.29584473 213.36264594 -126.43683162 214.24240072 -115 211 C-112.8134074 210.45468189 -110.62586431 209.91316418 -108.4375 209.375 C-106.62470361 208.91784036 -104.81209723 208.45992316 -103 208 C-103 207.34 -103 206.68 -103 206 C-102.195625 205.62875 -101.39125 205.2575 -100.5625 204.875 C-88.92336778 199.00053232 -81.62844025 191.84480276 -75.48046875 180.37890625 C-74.99191406 179.59386719 -74.50335937 178.80882812 -74 178 C-73.34 178 -72.68 178 -72 178 C-71.7834375 176.576875 -71.7834375 176.576875 -71.5625 175.125 C-71 172 -71 172 -70 170 C-69.34 170 -68.68 170 -68 170 C-67.12519397 163.16381417 -66.78638085 156.45212329 -66.75 149.5625 C-66.729375 148.58990234 -66.70875 147.61730469 -66.6875 146.61523438 C-66.65154871 139.8878492 -67.75621142 134.32282285 -70 128 C-70.31582031 126.97648438 -70.63164063 125.95296875 -70.95703125 124.8984375 C-73.05313755 118.71540248 -75.74278872 113.95255579 -80 109 C-79.34 108.67 -78.68 108.34 -78 108 C-77.071875 108.8353125 -77.071875 108.8353125 -76.125 109.6875 C-70.03082706 114.19718797 -63.36027982 117.23993309 -56 119 C-56 119.66 -56 120.32 -56 121 C-51.85418181 121.02931979 -47.70839075 121.04690557 -43.5625 121.0625 C-42.39783203 121.07087891 -41.23316406 121.07925781 -40.03320312 121.08789062 C-26.21634274 121.21343619 -26.21634274 121.21343619 -13.5625 116.375 C-12.91925781 116.01672119 -12.27601563 115.65844238 -11.61328125 115.28930664 C2.12074973 107.72888727 2.12074973 107.72888727 12 96 C12.66 96 13.32 96 14 96 C14.309375 95.05125 14.61875 94.1025 14.9375 93.125 C16 90 16 90 17 88 C17.66 88 18.32 88 19 88 C19.66 85.03 20.32 82.06 21 79 C21.66 79 22.32 79 23 79 C25.51335521 66.29857994 27.19778611 51.51464984 23 39 C22.79375 38.35417969 22.5875 37.70835937 22.375 37.04296875 C20.00221479 30.20772955 17.17096581 23.12587017 12 18 C12 17.34 12 16.68 12 16 C11.01 15.67 10.02 15.34 9 15 C7.7635718 13.53580871 6.5303817 12.06814864 5.33984375 10.56640625 C3.47216279 8.38290752 1.2991781 6.70796088 -1 5 C-0.67 3.35 -0.34 1.7 0 0 Z " fill="#243D78" transform="translate(638,600)"/>
<path d="M0 0 C337.92 0 675.84 0 1024 0 C1024 337.92 1024 675.84 1024 1024 C686.08 1024 348.16 1024 0 1024 C0 686.08 0 348.16 0 0 Z M26.42724609 37.33154297 C19.96961567 44.88054166 15.00051564 53.24494437 11.125 62.375 C10.73187622 63.28995239 10.73187622 63.28995239 10.33081055 64.22338867 C9.44888226 66.45581388 8.72834148 68.71227334 8 71 C7.66653706 71.9881717 7.33307412 72.97634339 6.98950624 73.99445969 C2.71893949 88.87342989 3.43419576 104.22453359 3.48612978 119.56040922 C3.49634778 123.89537657 3.48320896 128.23028705 3.47315645 132.56524616 C3.45875587 140.15060656 3.4591194 147.73585294 3.46934509 155.32121849 C3.48450988 166.60118695 3.47672199 177.88105968 3.46451186 189.16102755 C3.44347214 209.31031772 3.44526525 229.45955709 3.45682751 249.60885207 C3.4668964 267.24263333 3.46951344 284.87639598 3.46473694 302.51017952 C3.4644314 303.68063442 3.46412586 304.85108933 3.46381106 306.05701256 C3.46256567 310.80848226 3.46129206 315.55995196 3.459972 320.31142164 C3.44774034 364.86969361 3.45882284 409.42793326 3.48035959 453.98620025 C3.49934028 493.55697959 3.49764404 533.12770744 3.47851562 572.69848633 C3.45708774 617.17462884 3.4486091 661.65074281 3.46096468 706.12688977 C3.46224751 710.86992808 3.46349888 715.61296639 3.46473694 720.35600471 C3.46505325 721.52382905 3.46536956 722.69165339 3.46569545 723.89486634 C3.4702416 741.51509266 3.46493119 759.13529832 3.45481873 776.75552177 C3.44337493 796.79520741 3.4462554 816.83483438 3.4679417 836.87451272 C3.47967297 848.08420713 3.48047367 859.29377445 3.465357 870.50346552 C3.45636676 877.997915 3.46200701 885.49226291 3.47937608 892.98669738 C3.48886057 897.25218672 3.49220918 901.51742416 3.47775215 905.78290527 C3.36908434 940.47022182 9.0552328 967.98897014 33.5625 994 C52.46440793 1012.46571005 77.84906758 1020.5107637 103.89471626 1020.38311005 C105.34948209 1020.3868558 106.80424501 1020.39191054 108.25900233 1020.39813888 C112.2331399 1020.41139498 116.20706514 1020.40619695 120.18120792 1020.39780539 C124.51381563 1020.39197366 128.84638387 1020.40356308 133.17898071 1020.41286707 C140.76489874 1020.42675457 148.35075714 1020.42952024 155.93668556 1020.42490768 C167.21765858 1020.41806625 178.49857137 1020.42834514 189.77953602 1020.44186524 C211.10155454 1020.4667629 232.423548 1020.47129484 253.74557872 1020.46939927 C270.21294619 1020.46802566 286.68030498 1020.4718465 303.14767075 1020.47932434 C305.51439767 1020.48037468 307.88112459 1020.4814223 310.24785151 1020.4824672 C312.01013491 1020.48324622 312.01013491 1020.48324622 313.80801999 1020.48404097 C314.98503933 1020.48456112 316.16205866 1020.48508126 317.37474525 1020.48561716 C318.55375189 1020.48614115 319.73275853 1020.48666514 320.94749265 1020.48720502 C354.10461367 1020.50178674 387.26173151 1020.51007152 420.41885567 1020.50545502 C421.66860971 1020.50528306 422.91836376 1020.50511111 424.20598914 1020.50493394 C430.54007557 1020.50404507 436.87416198 1020.50310025 443.20824839 1020.50213593 C444.46619158 1020.5019449 445.72413478 1020.50175387 447.02019746 1020.50155704 C449.56406425 1020.50116995 452.10793104 1020.50077962 454.65179782 1020.50038607 C494.22882661 1020.49441688 533.8057969 1020.50985138 573.3828125 1020.54199219 C617.86078276 1020.57808257 662.33871594 1020.59739996 706.81670177 1020.59245348 C711.56094606 1020.59198351 716.30519036 1020.59157326 721.04943466 1020.59120178 C722.21756365 1020.5910994 723.38569265 1020.59099701 724.58921949 1020.59089152 C742.21028525 1020.58969753 759.83131091 1020.60165301 777.45236588 1020.62034607 C797.49792747 1020.64160101 817.54340501 1020.64541461 837.58897038 1020.62604648 C848.80048177 1020.61573389 860.01178804 1020.61915567 871.22328081 1020.64257733 C878.72159472 1020.65685018 886.21975745 1020.65279415 893.71806126 1020.63413157 C897.98421622 1020.6240199 902.24997306 1020.62154481 906.51610257 1020.64145225 C939.46234871 1020.78491367 967.48520026 1016.15131836 992 992 C1002.92307209 981.09516343 1011.1106029 967.66113082 1016 953 C1016.33580694 952.01684614 1016.67161388 951.03369228 1017.01759678 950.02074587 C1021.2774688 935.1279411 1020.56284712 919.76788705 1020.50766886 904.4209867 C1020.4965425 900.08335644 1020.50880145 895.7457784 1020.51797634 891.40815222 C1020.53084236 883.81819815 1020.52894809 876.22836101 1020.51719666 868.63840675 C1020.4997698 857.3517752 1020.50532979 846.06523511 1020.51536357 834.77859874 C1020.53253553 814.61826383 1020.52702751 794.45798338 1020.51200638 774.29764961 C1020.49894685 756.65609665 1020.49376014 739.01456257 1020.49632454 721.37300491 C1020.49648495 720.20211464 1020.49664537 719.03122436 1020.49681065 717.82485256 C1020.49747425 713.07166914 1020.49817666 708.31848574 1020.49893599 703.56530234 C1020.50595734 658.99279303 1020.4904774 614.42031696 1020.46431253 569.84781611 C1020.44119509 530.25693208 1020.4358107 490.66608457 1020.44604492 451.07519531 C1020.44864698 440.93560475 1020.45123201 430.79601418 1020.45364285 420.65642357 C1020.45408902 418.78390481 1020.45408902 418.78390481 1020.4545442 416.87355738 C1020.46216039 383.7793184 1020.45574582 350.6850824 1020.44494683 317.59084475 C1020.44379903 314.02958083 1020.44265586 310.4683169 1020.44152 306.90705297 C1020.44076475 304.54466498 1020.43999911 302.18227698 1020.43922299 299.81988899 C1020.43356681 282.18901887 1020.43489315 264.55815821 1020.43945122 246.92728806 C1020.44456042 226.87983836 1020.43869975 206.83242403 1020.41855692 186.78498314 C1020.40757624 175.56801357 1020.4047722 164.35111353 1020.41384545 153.13414185 C1020.41906998 145.63867299 1020.41335387 138.14326357 1020.39879211 130.64780718 C1020.39079852 126.37930611 1020.38744816 122.11094543 1020.39736467 117.84244518 C1020.40630009 113.95188859 1020.40120982 110.0616009 1020.38538523 106.17106853 C1020.38055789 104.12819807 1020.39026388 102.08530859 1020.40073386 100.04245925 C1020.24523235 75.14674029 1011.24150338 51.53725111 993.74609375 33.7109375 C992.83988281 32.81632812 991.93367187 31.92171875 991 31 C990.18660156 30.18789063 989.37320313 29.37578125 988.53515625 28.5390625 C979.95285227 20.38796018 970.26157372 14.65740472 959.375 10.1875 C958.72660156 9.9095459 958.07820312 9.6315918 957.41015625 9.34521484 C939.07910546 2.25530984 918.57754415 3.56744395 899.28520433 3.6207987 C894.96328695 3.62938549 890.64139781 3.62039174 886.31948191 3.61373454 C878.76036751 3.60447706 871.20131975 3.60626479 863.64220619 3.61546707 C852.401721 3.6291132 841.16128662 3.62548633 829.92079767 3.61850847 C809.84386086 3.60660231 789.76695551 3.61165146 769.69002045 3.62378674 C752.12577306 3.63433086 734.56153638 3.63886121 716.99728584 3.63749123 C715.83135281 3.6374072 714.66541977 3.63732317 713.46415543 3.63723659 C708.73112626 3.63688433 703.99809708 3.63650032 699.26506791 3.63607101 C654.8930758 3.63210848 610.52110264 3.64481319 566.14911595 3.66559757 C526.72578932 3.68397708 487.30248084 3.68977688 447.87915039 3.68432617 C445.34643171 3.68397974 442.81371303 3.68363364 440.28099435 3.68328788 C438.40279944 3.68303139 438.40279944 3.68303139 436.48666121 3.68276971 C430.18361967 3.68191617 423.88057813 3.68109239 417.57753658 3.68030071 C415.71229464 3.68006509 415.71229464 3.68006509 413.80937104 3.67982471 C380.86055635 3.67583596 347.91174341 3.68130823 314.96292979 3.689812 C311.41842634 3.69071904 307.87392289 3.69162469 304.32941945 3.69252724 C301.97812279 3.69312834 299.62682614 3.69373696 297.27552949 3.69435314 C280.87963246 3.69857552 264.48373886 3.69915238 248.08784146 3.69724765 C226.96626284 3.69480614 205.84470261 3.69886532 184.72312903 3.71445765 C173.55176822 3.7225143 162.38043805 3.72510466 151.20907541 3.7198153 C143.75046506 3.71684196 136.29188184 3.72112842 128.83327798 3.73136387 C124.58178211 3.73699857 120.33034879 3.73948304 116.07885241 3.73319729 C112.20963323 3.72754559 108.34053543 3.73112377 104.4713284 3.74199607 C103.08195873 3.7442992 101.69257843 3.74327646 100.30321516 3.73847352 C71.51235497 3.64647132 45.70203973 15.98030786 26.42724609 37.33154297 Z " fill="#FEFEFE" transform="translate(0,0)"/>
<path d="M0 0 C35.97 0 71.94 0 109 0 C109 5 109 5 107.4609375 6.7734375 C106.77257812 7.30195312 106.08421875 7.83046875 105.375 8.375 C98.96677577 13.65897437 94.75531763 19.06099535 90.75 26.3125 C90.40839844 26.91642578 90.06679688 27.52035156 89.71484375 28.14257812 C84.95028029 37.11172647 84.65726945 46.52392007 84.6875 56.5 C84.67138672 57.56347656 84.65527344 58.62695312 84.63867188 59.72265625 C84.63109965 72.06537901 88.656391 82.53304515 95 93 C95 93.66 95 94.32 95 95 C96.485 95.495 96.485 95.495 98 96 C98 96.99 98 97.98 98 99 C96.515 98.505 96.515 98.505 95 98 C94.67 97.34 94.34 96.68 94 96 C92.35636866 95.27840576 90.68949614 94.60648579 89 94 C89 93.34 89 92.68 89 92 C86.69 91.34 84.38 90.68 82 90 C82 89.34 82 88.68 82 88 C80.91332031 87.81824219 80.91332031 87.81824219 79.8046875 87.6328125 C78.83789062 87.46523438 77.87109375 87.29765625 76.875 87.125 C75.92367187 86.96257812 74.97234375 86.80015625 73.9921875 86.6328125 C71 86 71 86 68.30859375 84.95703125 C54.56813012 80.98251698 37.9804847 83.48873275 25 89 C22.98490164 90.31040314 20.98100487 91.63860458 19 93 C18.34 93 17.68 93 17 93 C16.67 93.99 16.34 94.98 16 96 C14.328125 97.578125 14.328125 97.578125 12.25 99.25 C9.42144147 101.62315555 7.22845208 103.86046827 5.1875 106.9375 C4.465625 107.948125 3.74375 108.95875 3 110 C2.01 110 1.02 110 0 110 C0 73.7 0 37.4 0 0 Z " fill="#243D78" transform="translate(450,599)"/>
<path d="M0 0 C0.33 0 0.66 0 1 0 C1.21914063 1.12535156 1.43828125 2.25070312 1.6640625 3.41015625 C7.21969174 30.79511636 20.54323631 54.22833737 44 70 C47.58190066 72.20349987 51.22113465 74.15759567 55 76 C55.87011719 76.43957031 56.74023438 76.87914062 57.63671875 77.33203125 C66.95582861 81.83513397 76.73566596 84.69741954 87 86 C87 86.33 87 86.66 87 87 C58.29 87 29.58 87 0 87 C0 58.29 0 29.58 0 0 Z " fill="#000000" transform="translate(0,937)"/>
<path d="M0 0 C28.38 0 56.76 0 86 0 C86 28.38 86 56.76 86 86 C85.67 86 85.34 86 85 86 C84.78085937 84.94683594 84.56171875 83.89367187 84.3359375 82.80859375 C78.07378641 53.83006646 64.02637784 31.92426195 39.37109375 15.21875 C33.23840073 11.35997686 26.76056868 8.57195547 20 6 C19.21625 5.7009375 18.4325 5.401875 17.625 5.09375 C11.87117014 3.03881076 6.02425169 1.9571241 0 1 C0 0.67 0 0.34 0 0 Z " fill="#000000" transform="translate(938,0)"/>
<path d="M0 0 C28.71 0 57.42 0 87 0 C87 0.33 87 0.66 87 1 C86.1028125 1.14695313 85.205625 1.29390625 84.28125 1.4453125 C58.24615067 6.1251754 34.71643661 18.92947932 19.17578125 40.79296875 C9.58928223 54.9231585 3.98675911 69.23222958 1 86 C0.67 86 0.34 86 0 86 C0 57.62 0 29.24 0 0 Z " fill="#000000" transform="translate(0,0)"/>
<path d="M0 0 C0.33 0 0.66 0 1 0 C1 28.38 1 56.76 1 86 C-27.71 86 -56.42 86 -86 86 C-86 85.67 -86 85.34 -86 85 C-85.1028125 84.85304688 -84.205625 84.70609375 -83.28125 84.5546875 C-64.00371872 81.08951142 -48.0371457 73.73911014 -33 61 C-32.02546875 60.22785156 -31.0509375 59.45570313 -30.046875 58.66015625 C-12.98439052 44.40802704 -3.45886812 21.44498236 0 0 Z " fill="#000000" transform="translate(1023,938)"/>
<path d="M0 0 C0 0.99 0 1.98 0 3 C-0.99 3.99 -1.98 4.98 -3 6 C49.47 6.495 49.47 6.495 103 7 C103 7.33 103 7.66 103 8 C67.03 8 31.06 8 -6 8 C-4.85240511 3.40962044 -3.70960782 2.66330818 0 0 Z " fill="#566A97" transform="translate(320,566)"/>
<path d="M0 0 C-1.64990206 4.29597139 -4.81742807 7.00517646 -8.0625 10.125 C-12.0044894 13.69553366 -12.0044894 13.69553366 -15 18 C-16.65 18 -18.3 18 -20 18 C-19.67 17.34 -19.34 16.68 -19 16 C-18.01 16.33 -17.02 16.66 -16 17 C-15.76152344 16.44441406 -15.52304687 15.88882813 -15.27734375 15.31640625 C-13.70740153 12.46938564 -11.76079551 10.33071826 -9.5625 7.9375 C-8.78003906 7.08027344 -7.99757813 6.22304688 -7.19140625 5.33984375 C-6.10666016 4.18162109 -6.10666016 4.18162109 -5 3 C-4.45214844 2.40316406 -3.90429688 1.80632813 -3.33984375 1.19140625 C-2 0 -2 0 0 0 Z " fill="#D1D6E2" transform="translate(469,692)"/>
<path d="M0 0 C0.33 0.66 0.66 1.32 1 2 C0.34 2 -0.32 2 -1 2 C-1.20625 2.53625 -1.4125 3.0725 -1.625 3.625 C-3.57996944 7.0017654 -6.18223695 9.30474839 -9 12 C-9.99 11.67 -10.98 11.34 -12 11 C-10.37807179 9.35113941 -8.75236228 7.7059976 -7.125 6.0625 C-6.22007812 5.14597656 -5.31515625 4.22945313 -4.3828125 3.28515625 C-2 1 -2 1 0 0 Z " fill="#4A5F90" transform="translate(482,392)"/>
<path d="M0 0 C0 0.66 0 1.32 0 2 C-0.99 2 -1.98 2 -3 2 C-3.25523437 2.58265625 -3.51046875 3.1653125 -3.7734375 3.765625 C-5.11741087 6.21388223 -6.61810296 7.81743248 -8.625 9.75 C-9.57246094 10.67039062 -9.57246094 10.67039062 -10.5390625 11.609375 C-11.02117188 12.06828125 -11.50328125 12.5271875 -12 13 C-12 9.07575145 -10.73405902 8.22546662 -8.125 5.375 C-7.04605469 4.18003906 -7.04605469 4.18003906 -5.9453125 2.9609375 C-3.86914932 0.86809831 -2.95460361 0 0 0 Z " fill="#C5CBDB" transform="translate(628,576)"/>
<path d="M0 0 C1.92759992 1.67617384 2.90534623 2.59772148 3.5 5.125 C3.665 5.74375 3.83 6.3625 4 7 C4.99 7.33 5.98 7.66 7 8 C7 8.99 7 9.98 7 11 C6.01 10.67 5.02 10.34 4 10 C3.67 9.34 3.34 8.68 3 8 C1.35636866 7.27840576 -0.31050386 6.60648579 -2 6 C-1.01 5.67 -0.02 5.34 1 5 C0.67 3.35 0.34 1.7 0 0 Z " fill="#7D8BAF" transform="translate(541,687)"/>
<path d="M0 0 C0.66 0.33 1.32 0.66 2 1 C0.92807816 2.3218362 -0.15802695 3.63217927 -1.25 4.9375 C-1.85328125 5.66839844 -2.4565625 6.39929688 -3.078125 7.15234375 C-5.10741134 9.10326334 -6.254407 9.61731779 -9 10 C-8.06409496 8.8944811 -7.12620142 7.79064547 -6.1875 6.6875 C-5.66542969 6.07261719 -5.14335938 5.45773437 -4.60546875 4.82421875 C-3.12827531 3.14575321 -1.59960869 1.56117966 0 0 Z " fill="#D2D7E3" transform="translate(557,604)"/>
<path d="M0 0 C3.29804771 0.56862892 4.80019989 1.50022714 7 4 C7.66 4.66 8.32 5.32 9 6 C8.01 6 7.02 6 6 6 C5.67 6.66 5.34 7.32 5 8 C4.16382818 6.8562364 3.33113541 5.70992861 2.5 4.5625 C2.0359375 3.92441406 1.571875 3.28632812 1.09375 2.62890625 C0 1 0 1 0 0 Z " fill="#6576A0" transform="translate(558,708)"/>
<path d="M0 0 C0.33 0.99 0.66 1.98 1 3 C-0.8125 6.1875 -0.8125 6.1875 -3 9 C-3.66 9 -4.32 9 -5 9 C-3.90931332 5.22454612 -3.0916909 2.52956528 0 0 Z " fill="#596C99" transform="translate(567,630)"/>
</svg>
